{
  "accessors": [
    {
      "bufferView": 2,
      "componentType": 5126,
      "count": 5558,
      "max": [
        1.0351223945617676,
        0.57922250032424927,
        0.53489118814468384
      ],
      "min": [
        -1.0350868701934814,
        -0.57904458045959473,
        -0.65480333566665649
      ],
      "type": "VEC3"
    },
    {
      "bufferView": 2,
      "byteOffset": 66696,
      "componentType": 5126,
      "count": 5558,
      "max": [
        0.99950301647186279,
        1,
        1
      ],
      "min": [
        -0.99950194358825684,
        -1,
        -1
      ],
      "type": "VEC3"
    },
    {
      "bufferView": 3,
      "componentType": 5126,
      "count": 5558,
      "max": [
        0.89728647470474243,
        0.98910999298095703,
        0.99999552965164185,
        1
      ],
      "min": [
        -0.89430302381515503,
        -1,
        -0.79537832736968994,
        1
      ],
      "type": "VEC4"
    },
    {
      "bufferView": 1,
      "componentType": 5126,
      "count": 5558,
      "max": [
        0.64973783493041992,
        0.99985939264297485
      ],
      "min": [
        0.0001405358052579686,
        0.0001405358052579686
      ],
      "type": "VEC2"
    },
    {
      "bufferView": 0,
      "componentType": 5125,
      "count": 31680,
      "max": [
        5557
      ],
      "min": [
        0
      ],
      "type": "SCALAR"
    },
    {
      "bufferView": 2,
      "byteOffset": 133392,
      "componentType": 5126,
      "count": 1448,
      "max": [
        0.72490566968917847,
        0.46451136469841003,
        0.33171474933624268
      ],
      "min": [
        -0.72490566968917847,
        -0.46451136469841003,
        0.032158881425857544
      ],
      "type": "VEC3"
    },
    {
      "bufferView": 2,
      "byteOffset": 150768,
      "componentType": 5126,
      "count": 1448,
      "max": [
        1,
        1,
        0.97858625650405884
      ],
      "min": [
        -1,
        -1,
        -0.91583311557769775
      ],
      "type": "VEC3"
    },
    {
      "bufferView": 3,
      "byteOffset": 88928,
      "componentType": 5126,
      "count": 1448,
      "max": [
        0.978507399559021,
        0.97857201099395752,
        0.99999982118606567,
        1
      ],
      "min": [
        -0.978507399559021,
        -0.97857201099395752,
        -0.39926019310951233,
        -1
      ],
      "type": "VEC4"
    },
    {
      "bufferView": 1,
      "byteOffset": 44464,
      "componentType": 5126,
      "count": 1448,
      "max": [
        0.99989157915115356,
        0.87598460912704468
      ],
      "min": [
        0.00010843083146028221,
        0.00010843083146028221
      ],
      "type": "VEC2"
    },
    {
      "bufferView": 0,
      "byteOffset": 126720,
      "componentType": 5125,
      "count": 7272,
      "max": [
        1447
      ],
      "min": [
        0
      ],
      "type": "SCALAR"
    }
  ],
  "asset": {
    "extras": {
      "author": "Mr.Max (https://sketchfab.com/Mr_MaxW)",
      "license": "CC-BY-4.0 (http://creativecommons.org/licenses/by/4.0/)",
      "source": "https://sketchfab.com/3d-models/portal-table-7375cdb12a7648fd826d48d8e7326133",
      "title": "Portal Table"
    },
    "generator": "Sketchfab-10.11.2",
    "version": "2.0"
  },
  "bufferViews": [
    {
      "buffer": 0,
      "byteLength": 155808,
      "byteOffset": 0,
      "name": "floatBufferViews",
      "target": 34963
    },
    {
      "buffer": 0,
      "byteLength": 56048,
      "byteOffset": 155808,
      "byteStride": 8,
      "name": "floatBufferViews",
      "target": 34962
    },
    {
      "buffer": 0,
      "byteLength": 168144,
      "byteOffset": 211856,
      "byteStride": 12,
      "name": "floatBufferViews",
      "target": 34962
    },
    {
      "buffer": 0,
      "byteLength": 112096,
      "byteOffset": 380000,
      "byteStride": 16,
      "name": "floatBufferViews",
      "target": 34962
    }
  ],
  "buffers": [
    {
      "byteLength": 492096,
      "uri": "scene.bin"
    }
  ],
  "images": [
    {
      "uri": "textures/Table_baseColor.png"
    },
    {
      "uri": "textures/Table_metallicRoughness.png"
    },
    {
      "uri": "textures/Table_normal.png"
    },
    {
      "uri": "textures/Table_Legs_baseColor.png"
    },
    {
      "uri": "textures/Table_Legs_metallicRoughness.png"
    },
    {
      "uri": "textures/Table_Legs_normal.png"
    }
  ],
  "materials": [
    {
      "doubleSided": true,
      "emissiveFactor": [
        0,
        0,
        0
      ],
      "name": "Table",
      "normalTexture": {
        "index": 2,
        "scale": 1,
        "texCoord": 0
      },
      "pbrMetallicRoughness": {
        "baseColorFactor": [
          1,
          1,
          1,
          1
        ],
        "baseColorTexture": {
          "index": 0,
          "texCoord": 0
        },
        "metallicFactor": 1,
        "metallicRoughnessTexture": {
          "index": 1,
          "texCoord": 0
        },
        "roughnessFactor": 1
      }
    },
    {
      "doubleSided": true,
      "emissiveFactor": [
        0,
        0,
        0
      ],
      "name": "Table_Legs",
      "normalTexture": {
        "index": 5,
        "scale": 1,
        "texCoord": 0
      },
      "pbrMetallicRoughness": {
        "baseColorFactor": [
          1,
          1,
          1,
          1
        ],
        "baseColorTexture": {
          "index": 3,
          "texCoord": 0
        },
        "metallicFactor": 0,
        "metallicRoughnessTexture": {
          "index": 4,
          "texCoord": 0
        },
        "roughnessFactor": 1
      }
    }
  ],
  "meshes": [
    {
      "name": "Table_Table_0",
      "primitives": [
        {
          "attributes": {
            "NORMAL": 1,
            "POSITION": 0,
            "TANGENT": 2,
            "TEXCOORD_0": 3
          },
          "indices": 4,
          "material": 0,
          "mode": 4
        }
      ]
    },
    {
      "name": "Table_Legs_Table_Legs_0",
      "primitives": [
        {
          "attributes": {
            "NORMAL": 6,
            "POSITION": 5,
            "TANGENT": 7,
            "TEXCOORD_0": 8
          },
          "indices": 9,
          "material": 1,
          "mode": 4
        }
      ]
    }
  ],
  "nodes": [
    {
      "children": [
        1
      ],
      "name": "RootNode (gltf orientation matrix)",
      "rotation": [
        -0.70710678118654746,
        -0,
        -0,
        0.70710678118654757
      ]
    },
    {
      "children": [
        2
      ],
      "name": "RootNode (model correction matrix)"
    },
    {
      "children": [
        3
      ],
      "matrix": [
        1,
        0,
        0,
        0,
        0,
        0,
        1,
        0,
        0,
        -1,
        0,
        0,
        0,
        0,
        0,
        1
      ],
      "name": "dcb0f21529b8469c8180ce820d406b2d.fbx"
    },
    {
      "children": [
        4,
        6
      ],
      "name": "RootNode"
    },
    {
      "children": [
        5
      ],
      "matrix": [
        100,
        0,
        0,
        0,
        0,
        -1.6292067939183141e-05,
        -99.999999999998678,
        0,
        0,
        99.999999999998678,
        -1.6292067939183141e-05,
        0,
        0,
        70.45721435546875,
        0,
        1
      ],
      "name": "Table"
    },
    {
      "mesh": 0,
      "name": "Table_Table_0"
    },
    {
      "children": [
        7
      ],
      "matrix": [
        100,
        0,
        0,
        0,
        0,
        -1.6292067939183141e-05,
        -99.999999999998678,
        0,
        0,
        99.999999999998678,
        -1.6292067939183141e-05,
        0,
        0,
        -3.2421932220458984,
        0,
        1
      ],
      "name": "Table_Legs"
    },
    {
      "mesh": 1,
      "name": "Table_Legs_Table_Legs_0"
    }
  ],
  "samplers": [
    {
      "magFilter": 9729,
      "minFilter": 9987,
      "wrapS": 10497,
      "wrapT": 10497
    }
  ],
  "scene": 0,
  "scenes": [
    {
      "name": "OSG_Scene",
      "nodes": [
        0
      ]
    }
  ],
  "textures": [
    {
      "sampler": 0,
      "source": 0
    },
    {
      "sampler": 0,
      "source": 1
    },
    {
      "sampler": 0,
      "source": 2
    },
    {
      "sampler": 0,
      "source": 3
    },
    {
      "sampler": 0,
      "source": 4
    },
    {
      "sampler": 0,
      "source": 5
    }
  ]
}

