{
  "accessors": [
    {
      "bufferView": 2,
      "componentType": 5126,
      "count": 23156,
      "max": [
        3.732487201690674,
        7.925832271575928,
        2.544114112854004
      ],
      "min": [
        -3.732487201690674,
        -10.203710556030273,
        -6.551270961761475
      ],
      "type": "VEC3"
    },
    {
      "bufferView": 2,
      "byteOffset": 277872,
      "componentType": 5126,
      "count": 23156,
      "max": [
        1.0,
        1.0,
        1.0
      ],
      "min": [
        -1.0,
        -1.0,
        -1.0
      ],
      "type": "VEC3"
    },
    {
      "bufferView": 3,
      "componentType": 5126,
      "count": 23156,
      "max": [
        1.0,
        0.9999998807907104,
        0.9999992847442627,
        1.0
      ],
      "min": [
        -1.0,
        -0.9999983310699463,
        -1.0,
        -1.0
      ],
      "type": "VEC4"
    },
    {
      "bufferView": 1,
      "componentType": 5126,
      "count": 23156,
      "max": [
        0.9960593581199646,
        0.981666088104248
      ],
      "min": [
        0.003940718248486519,
        0.003940718248486519
      ],
      "type": "VEC2"
    },
    {
      "bufferView": 0,
      "componentType": 5125,
      "count": 128964,
      "type": "SCALAR"
    },
    {
      "bufferView": 2,
      "byteOffset": 555744,
      "componentType": 5126,
      "count": 794,
      "max": [
        0.964942216873169,
        0.0007044612430036068,
        1.0199060440063477
      ],
      "min": [
        -0.9649422764778137,
        -0.9503424167633057,
        -1.0199060440063477
      ],
      "type": "VEC3"
    },
    {
      "bufferView": 2,
      "byteOffset": 565272,
      "componentType": 5126,
      "count": 794,
      "max": [
        0.9863824248313904,
        1.0,
        0.9907721281051636
      ],
      "min": [
        -0.9863824248313904,
        -1.0,
        -0.9907814860343933
      ],
      "type": "VEC3"
    },
    {
      "bufferView": 1,
      "byteOffset": 185248,
      "componentType": 5126,
      "count": 794,
      "max": [
        0.9624594449996948,
        0.933366596698761
      ],
      "min": [
        0.029371662065386772,
        0.03306283801794052
      ],
      "type": "VEC2"
    },
    {
      "bufferView": 0,
      "byteOffset": 515856,
      "componentType": 5125,
      "count": 4752,
      "type": "SCALAR"
    }
  ],
  "asset": {
    "extras": {
      "author": "Mr.Max (https://sketchfab.com/Mr_MaxW)",
      "license": "CC-BY-4.0 (http://creativecommons.org/licenses/by/4.0/)",
      "source": "https://sketchfab.com/3d-models/portal-bed-f92ad24a372a4fabba7539e73c541413",
      "title": "Portal Bed"
    },
    "generator": "Sketchfab-11.97.0",
    "version": "2.0"
  },
  "bufferViews": [
    {
      "buffer": 0,
      "byteLength": 534864,
      "name": "floatBufferViews",
      "target": 34963
    },
    {
      "buffer": 0,
      "byteLength": 191600,
      "byteOffset": 534864,
      "byteStride": 8,
      "name": "floatBufferViews",
      "target": 34962
    },
    {
      "buffer": 0,
      "byteLength": 574800,
      "byteOffset": 726464,
      "byteStride": 12,
      "name": "floatBufferViews",
      "target": 34962
    },
    {
      "buffer": 0,
      "byteLength": 370496,
      "byteOffset": 1301264,
      "byteStride": 16,
      "name": "floatBufferViews",
      "target": 34962
    }
  ],
  "buffers": [
    {
      "byteLength": 1671760,
      "uri": "scene.bin"
    }
  ],
  "extensionsUsed": [
    "KHR_materials_transmission"
  ],
  "images": [
    {
      "uri": "textures/material_baseColor.png"
    },
    {
      "uri": "textures/material_metallicRoughness.png"
    },
    {
      "uri": "textures/material_emissive.png"
    },
    {
      "uri": "textures/material_normal.png"
    },
    {
      "uri": "textures/Bubble_baseColor.png"
    },
    {
      "uri": "textures/Bubble_transmission.png"
    }
  ],
  "materials": [
    {
      "doubleSided": true,
      "emissiveFactor": [
        1.0,
        1.0,
        1.0
      ],
      "emissiveTexture": {
        "index": 2
      },
      "name": "material",
      "normalTexture": {
        "index": 3
      },
      "pbrMetallicRoughness": {
        "baseColorTexture": {
          "index": 0
        },
        "metallicRoughnessTexture": {
          "index": 1
        }
      }
    },
    {
      "alphaMode": "BLEND",
      "doubleSided": true,
      "extensions": {
        "KHR_materials_transmission": {
          "transmissionFactor": 1.0,
          "transmissionTexture": {
            "index": 5
          }
        }
      },
      "name": "Bubble",
      "pbrMetallicRoughness": {
        "baseColorTexture": {
          "index": 4
        },
        "metallicFactor": 0.0,
        "roughnessFactor": 0.03154241832807392
      }
    }
  ],
  "meshes": [
    {
      "name": "Bed_Bed_0",
      "primitives": [
        {
          "attributes": {
            "NORMAL": 1,
            "POSITION": 0,
            "TANGENT": 2,
            "TEXCOORD_0": 3
          },
          "indices": 4,
          "material": 0,
          "mode": 4
        }
      ]
    },
    {
      "name": "Sphere_Bubble_0",
      "primitives": [
        {
          "attributes": {
            "NORMAL": 6,
            "POSITION": 5,
            "TEXCOORD_0": 7
          },
          "indices": 8,
          "material": 1,
          "mode": 4
        }
      ]
    }
  ],
  "nodes": [
    {
      "children": [
        1
      ],
      "matrix": [
        1.0,
        0.0,
        0.0,
        0.0,
        0.0,
        2.220446049250313e-16,
        -1.0,
        0.0,
        0.0,
        1.0,
        2.220446049250313e-16,
        0.0,
        0.0,
        0.0,
        0.0,
        1.0
      ],
      "name": "Sketchfab_model"
    },
    {
      "children": [
        2
      ],
      "matrix": [
        0.009999999776482582,
        0.0,
        0.0,
        0.0,
        0.0,
        0.0,
        0.009999999776482582,
        0.0,
        0.0,
        -0.009999999776482582,
        0.0,
        0.0,
        0.0,
        0.0,
        0.0,
        1.0
      ],
      "name": "53cca006444e4a65b58378a3e73653b6.fbx"
    },
    {
      "children": [
        3,
        5
      ],
      "name": "RootNode"
    },
    {
      "children": [
        4
      ],
      "matrix": [
        17.244863510131836,
        0.0,
        0.0,
        0.0,
        0.0,
        -2.8095448790900813e-06,
        -17.24486351013161,
        0.0,
        0.0,
        17.24486351013161,
        -2.8095448790900813e-06,
        0.0,
        0.0,
        112.89352416992188,
        -26.546022415161133,
        1.0
      ],
      "name": "Bed"
    },
    {
      "mesh": 0,
      "name": "Bed_Bed_0"
    },
    {
      "children": [
        6
      ],
      "matrix": [
        62.86399459838867,
        1.3892407096493979e-14,
        -1.5316531487205144e-14,
        0.0,
        1.836666713196691e-14,
        -75.02516235210751,
        7.333381294072284,
        0.0,
        -2.4982236462618582e-14,
        -10.997360303263712,
        -112.51000174556715,
        0.0,
        0.0,
        93.7925796508789,
        4.6534295082092285,
        1.0
      ],
      "name": "Sphere"
    },
    {
      "mesh": 1,
      "name": "Sphere_Bubble_0"
    }
  ],
  "samplers": [
    {
      "magFilter": 9729,
      "minFilter": 9987,
      "wrapS": 10497,
      "wrapT": 10497
    }
  ],
  "scene": 0,
  "scenes": [
    {
      "name": "Sketchfab_Scene",
      "nodes": [
        0
      ]
    }
  ],
  "textures": [
    {
      "sampler": 0,
      "source": 0
    },
    {
      "sampler": 0,
      "source": 1
    },
    {
      "sampler": 0,
      "source": 2
    },
    {
      "sampler": 0,
      "source": 3
    },
    {
      "sampler": 0,
      "source": 4
    },
    {
      "sampler": 0,
      "source": 5
    }
  ]
}
